<svg width="55" height="55" viewBox="0 0 55 55" fill="none" xmlns="http://www.w3.org/2000/svg">
<rect width="55" height="55" rx="27.5" fill="#B270F0" fill-opacity="0.16"/>
<path d="M19.9168 18.2834C18.5752 18.785 17.4785 20.3717 17.4785 21.8067V30.475C17.4785 31.8517 18.3885 33.66 19.4969 34.4883L24.5135 38.2334C26.1585 39.47 28.8652 39.47 30.5102 38.2334L35.5268 34.4883C36.6352 33.66 37.5452 31.8517 37.5452 30.475V21.8067C37.5452 20.3717 36.4485 18.785 35.1068 18.2834L29.2852 16.1017C28.2935 15.74 26.7068 15.74 25.7385 16.1017L19.9168 18.2834Z" stroke="#44087D" stroke-width="2" stroke-linecap="round" stroke-linejoin="round"/>
<path d="M27.3485 26.24C26.2518 26.205 25.3768 25.295 25.3768 24.1866C25.3768 23.055 26.2985 22.1333 27.4302 22.1333C28.5618 22.1333 29.4835 23.055 29.4835 24.1866C29.4719 25.3066 28.5968 26.205 27.5002 26.24C27.4535 26.24 27.3952 26.24 27.3485 26.24Z" stroke="#44087D" stroke-width="2" stroke-linecap="round" stroke-linejoin="round"/>
<path d="M25.1784 32.225C26.45 33.0767 28.5384 33.0767 29.81 32.225C30.93 31.4783 30.93 30.2533 29.81 29.5067C28.55 28.655 26.4617 28.655 25.1784 29.5067C24.0584 30.2533 24.0584 31.4783 25.1784 32.225Z" stroke="#44087D" stroke-width="2" stroke-linecap="round" stroke-linejoin="round"/>
</svg>
