<svg width="55" height="55" viewBox="0 0 55 55" fill="none" xmlns="http://www.w3.org/2000/svg">
<rect width="55" height="55" rx="27.5" fill="#B270F0" fill-opacity="0.16"/>
<path d="M27.4999 31.6767C25.1899 31.6767 23.3232 29.81 23.3232 27.5C23.3232 25.19 25.1899 23.3234 27.4999 23.3234C29.8099 23.3234 31.6766 25.19 31.6766 27.5C31.6766 29.81 29.8099 31.6767 27.4999 31.6767Z" stroke="#44087D" stroke-width="2" stroke-linecap="round" stroke-linejoin="round"/>
<path d="M38.1282 30.5216C39.1782 28.8766 39.1782 26.1116 38.1282 24.4666C35.4565 20.2666 31.6182 17.84 27.4998 17.84C23.3815 17.84 19.5432 20.2666 16.8715 24.4666C15.8215 26.1116 15.8215 28.8766 16.8715 30.5216C19.5432 34.7216 23.3815 37.1483 27.4998 37.1483C31.6182 37.1483 35.4565 34.7216 38.1282 30.5216Z" stroke="#44087D" stroke-width="2" stroke-linecap="round" stroke-linejoin="round"/>
</svg>
