<svg width="55" height="55" viewBox="0 0 55 55" fill="none" xmlns="http://www.w3.org/2000/svg">
<rect width="55" height="55" rx="27.5" fill="#B270F0" fill-opacity="0.16"/>
<path d="M27.7219 33.1L22.2269 38.5833C21.8303 38.9916 21.0486 39.2366 20.4886 39.155L17.9453 38.805C17.1053 38.6883 16.3236 37.895 16.1953 37.055L15.8453 34.5116C15.7636 33.9516 16.0319 33.17 16.4169 32.7733L21.9003 27.29C20.9669 24.2566 21.6903 20.815 24.0936 18.4233C27.5353 14.9816 33.1236 14.9816 36.5769 18.4233C40.0303 21.865 40.0303 27.4766 36.5886 30.9183C34.1853 33.31 30.7436 34.045 27.7219 33.1Z" stroke="#44087D" stroke-width="2" stroke-linecap="round" stroke-linejoin="round"/>
<path d="M21.5386 33.905L24.2219 36.5884" stroke="#44087D" stroke-width="2" stroke-linecap="round" stroke-linejoin="round"/>
<path fill-rule="evenodd" clip-rule="evenodd" d="M30.4167 26.3334C29.4502 26.3334 28.6667 25.5499 28.6667 24.5834C28.6667 23.6169 29.4502 22.8334 30.4167 22.8334C31.3832 22.8334 32.1667 23.6169 32.1667 24.5834C32.1667 25.5499 31.3832 26.3334 30.4167 26.3334Z" stroke="#44087D" stroke-width="2" stroke-linecap="round" stroke-linejoin="round"/>
</svg>
