<svg width="55" height="55" viewBox="0 0 55 55" fill="none" xmlns="http://www.w3.org/2000/svg">
<rect width="55" height="55" rx="27.5" fill="#B270F0" fill-opacity="0.16"/>
<path d="M17.524 33.192C16.7347 33.192 16.0573 33.0533 15.492 32.776C14.9267 32.488 14.4787 32.104 14.148 31.624C13.8173 31.1333 13.6147 30.584 13.54 29.976H15.108C15.2147 30.52 15.4813 30.968 15.908 31.32C16.3347 31.6613 16.8733 31.832 17.524 31.832C18.0147 31.832 18.436 31.7147 18.788 31.48C19.14 31.2453 19.412 30.9307 19.604 30.536C19.796 30.1413 19.892 29.704 19.892 29.224C19.892 28.712 19.7907 28.2693 19.588 27.896C19.396 27.512 19.124 27.2133 18.772 27C18.4307 26.7867 18.0307 26.68 17.572 26.68C17.0173 26.68 16.5373 26.808 16.132 27.064C15.7373 27.3093 15.4493 27.624 15.268 28.008H13.716L14.644 21.8H20.676V23.192H15.876L15.284 26.328C15.54 26.04 15.8813 25.8053 16.308 25.624C16.7453 25.4427 17.2413 25.352 17.796 25.352C18.3613 25.352 18.868 25.4533 19.316 25.656C19.764 25.848 20.1427 26.12 20.452 26.472C20.772 26.824 21.012 27.2347 21.172 27.704C21.3427 28.1733 21.428 28.6693 21.428 29.192C21.428 29.7573 21.3373 30.28 21.156 30.76C20.9747 31.24 20.7133 31.6667 20.372 32.04C20.0413 32.4027 19.6307 32.6853 19.14 32.888C18.66 33.0907 18.1213 33.192 17.524 33.192ZM27.8641 33.192C26.8721 33.192 26.0188 32.952 25.3041 32.472C24.5895 31.9813 24.0401 31.304 23.6561 30.44C23.2721 29.5653 23.0801 28.552 23.0801 27.4C23.0801 26.248 23.2721 25.24 23.6561 24.376C24.0401 23.5013 24.5895 22.824 25.3041 22.344C26.0188 21.8533 26.8721 21.608 27.8641 21.608C28.8561 21.608 29.7041 21.8533 30.4081 22.344C31.1228 22.824 31.6668 23.5013 32.0401 24.376C32.4241 25.24 32.6161 26.248 32.6161 27.4C32.6161 28.552 32.4241 29.5653 32.0401 30.44C31.6668 31.304 31.1228 31.9813 30.4081 32.472C29.7041 32.952 28.8561 33.192 27.8641 33.192ZM27.8641 31.768C28.4615 31.768 28.9948 31.592 29.4641 31.24C29.9441 30.888 30.3175 30.3867 30.5841 29.736C30.8508 29.0853 30.9841 28.3067 30.9841 27.4C30.9841 26.4933 30.8508 25.7147 30.5841 25.064C30.3175 24.4133 29.9441 23.9173 29.4641 23.576C28.9948 23.224 28.4615 23.048 27.8641 23.048C27.2561 23.048 26.7121 23.224 26.2321 23.576C25.7521 23.9173 25.3788 24.4133 25.1121 25.064C24.8455 25.7147 24.7121 26.4933 24.7121 27.4C24.7121 28.3067 24.8455 29.0853 25.1121 29.736C25.3788 30.3867 25.7521 30.888 26.2321 31.24C26.7121 31.592 27.2561 31.768 27.8641 31.768ZM35.103 33.08C34.7937 33.08 34.5377 32.984 34.335 32.792C34.143 32.5893 34.047 32.3493 34.047 32.072C34.047 31.784 34.143 31.544 34.335 31.352C34.5377 31.1493 34.7937 31.048 35.103 31.048C35.4123 31.048 35.663 31.1493 35.855 31.352C36.047 31.544 36.143 31.784 36.143 32.072C36.143 32.3493 36.047 32.5893 35.855 32.792C35.663 32.984 35.4123 33.08 35.103 33.08ZM35.103 26.776C34.7937 26.776 34.5377 26.68 34.335 26.488C34.143 26.2853 34.047 26.0453 34.047 25.768C34.047 25.48 34.143 25.24 34.335 25.048C34.5377 24.8453 34.7937 24.744 35.103 24.744C35.4123 24.744 35.663 24.8453 35.855 25.048C36.047 25.24 36.143 25.48 36.143 25.768C36.143 26.0453 36.047 26.2853 35.855 26.488C35.663 26.68 35.4123 26.776 35.103 26.776ZM39.3074 33V23.608L37.3554 24.104V22.904L39.8994 21.8H40.9394V33H39.3074Z" fill="#44087D"/>
</svg>
