<svg width="42" height="37" viewBox="0 0 42 37" fill="none" xmlns="http://www.w3.org/2000/svg">
<path fill-rule="evenodd" clip-rule="evenodd" d="M5.62711 18.2782C5.63841 18.3164 5.67312 18.3428 5.71298 18.3434C8.73217 18.3924 12.0085 18.3929 15.0777 18.3929C15.1281 18.3929 15.1689 18.4335 15.169 18.484C15.1852 24.6217 15.1526 31.1147 15.1684 36.847C15.1686 36.9163 15.0946 36.9601 15.0337 36.927C9.80682 34.089 5.43967 29.8905 2.90863 24.4833C2.88034 24.4228 2.92449 24.3535 2.99122 24.3535C4.63031 24.3529 6.2837 24.3429 7.90634 24.3532C7.93688 24.3534 7.96531 24.3689 7.98216 24.3944C8.67622 25.4443 9.39616 26.3802 10.1799 27.3088C10.2189 27.3549 10.3206 27.4634 10.4082 27.5497C10.46 27.6007 10.5359 27.5663 10.5373 27.4936C10.5681 25.9599 10.5838 24.3976 10.5844 22.8496C10.5844 22.7991 10.5436 22.7581 10.4931 22.7581C7.78755 22.758 4.98874 22.7512 2.28386 22.7511C2.24554 22.7511 2.2113 22.7271 2.19812 22.6911C0.574607 18.2566 -0.149581 13.6811 0.0255885 8.96475C0.0266481 8.93622 0.0410717 8.90974 0.0644581 8.89336C4.53339 5.76412 9.61967 4.10351 15.0719 3.76923C15.1244 3.76601 15.1688 3.80779 15.1688 3.86039C15.1688 5.34796 15.1688 6.8051 15.1688 8.26165C15.1688 8.31003 15.1312 8.35002 15.0829 8.35308C11.4617 8.58279 7.81296 9.59429 4.70991 11.4236C4.68257 11.4397 4.66562 11.4689 4.66517 11.5006C4.63274 13.7595 4.98661 16.1109 5.62711 18.2782Z" fill="#44087D"/>
<path fill-rule="evenodd" clip-rule="evenodd" d="M17.1248 3.87393C17.125 3.82047 17.1711 3.77864 17.2243 3.78344C22.5768 4.26585 27.4791 5.99751 31.9313 8.97845C31.955 8.99432 31.97 9.02042 31.9717 9.0489C32.1225 11.6131 31.9616 14.1715 31.4812 16.7012C31.473 16.7441 31.4356 16.7751 31.392 16.7754C29.8563 16.7863 28.436 16.7754 26.9911 16.7749C26.9405 16.7749 26.8996 16.7342 26.8996 16.6837C26.9011 15.1145 26.9385 13.1709 26.9008 11.5673C26.9001 11.5355 26.8827 11.5066 26.8551 11.4907C25.1193 10.4886 23.4692 9.75441 21.556 9.2227C21.4974 9.20643 21.4396 9.25108 21.4404 9.31187C21.5212 15.4478 21.4238 21.5028 21.5046 27.6387C21.5054 27.7006 21.5659 27.7427 21.6214 27.7153C21.7088 27.6723 21.8028 27.6131 21.8483 27.5584C22.9531 26.2273 23.8527 24.7655 24.5471 23.1727C24.5714 23.1171 24.6159 22.9891 24.6468 22.8834C24.663 22.8279 24.6206 22.775 24.5628 22.775C24.1304 22.775 23.7295 22.775 23.2831 22.775C23.2326 22.775 23.1917 22.7339 23.1917 22.6834C23.1917 21.233 23.1917 19.9349 23.1917 18.4845C23.1917 18.4339 23.2326 18.3929 23.2831 18.3929C25.8446 18.3929 28.4221 18.3929 31.0155 18.3929C31.0742 18.3929 31.1176 18.4478 31.1044 18.5049C29.227 26.6728 24.4661 32.8467 17.2243 36.9249C17.1641 36.9589 17.0892 36.9162 17.0881 36.847C16.9238 25.8826 17.0687 14.8944 17.1248 3.87393Z" fill="#44087D"/>
<path d="M35.7093 1.12224C34.1585 5.47409 33.5115 5.90793 28.8967 5.69037C33.2485 7.24122 33.6824 7.8882 33.4648 12.503C35.0156 8.15112 35.6626 7.7173 40.2774 7.93485C35.9256 6.38404 35.4918 5.73703 35.7093 1.12224Z" fill="#44087D"/>
</svg>
