<svg width="55" height="55" viewBox="0 0 55 55" fill="none" xmlns="http://www.w3.org/2000/svg">
<rect width="55" height="55" rx="27.5" fill="#B270F0" fill-opacity="0.16"/>
<path d="M21.9871 27.9708C19.6342 27.9708 17.7249 29.8846 17.7249 32.2331C17.7249 34.5816 19.6386 36.4953 21.9871 36.4953C24.3356 36.4953 26.2493 34.5816 26.2493 32.2331C26.2493 29.8846 24.3356 27.9708 21.9871 27.9708ZM21.9871 35.0106C20.4572 35.0106 19.2139 33.7673 19.2139 32.2375C19.2139 30.7076 20.4572 29.4643 21.9871 29.4643C23.5169 29.4643 24.7603 30.7076 24.7603 32.2375C24.7603 33.7673 23.5169 35.0106 21.9871 35.0106Z" fill="#44087D"/>
<path d="M33.0071 27.9708C30.6542 27.9708 28.7449 29.8846 28.7449 32.2331C28.7449 34.5816 30.6586 36.4953 33.0071 36.4953C35.3557 36.4953 37.2693 34.5816 37.2693 32.2331C37.2693 29.8846 35.3556 27.9708 33.0071 27.9708ZM33.0071 35.0106C31.4773 35.0106 30.2339 33.7673 30.2339 32.2375C30.2339 30.7076 31.4773 29.4643 33.0071 29.4643C34.5369 29.4643 35.7803 30.7076 35.7803 32.2375C35.7803 33.7673 34.5369 35.0106 33.0071 35.0106Z" fill="#44087D"/>
<path d="M44.2496 28.1611H40.6388V27.6099C40.6388 24.8731 38.4124 22.6482 35.6771 22.6482H28.1935V18.5792C29.3511 18.252 30.2032 17.1904 30.2032 15.9281C30.2032 14.4099 28.9672 13.1738 27.449 13.1738C25.9308 13.1738 24.6947 14.4099 24.6947 15.9281C24.6947 17.1904 25.5469 18.2505 26.7044 18.5792V22.6482H19.3113C16.5745 22.6482 14.3496 24.8746 14.3496 27.6099V28.1611H10.7446C10.3345 28.1611 10 28.4956 10 28.9057V35.5687C10 35.9788 10.3345 36.3133 10.7446 36.3133H14.3554V36.8644C14.3554 39.6013 16.5818 41.8262 19.3171 41.8262H35.6829C38.4197 41.8262 40.6446 39.5998 40.6446 36.8644V36.3133H44.2554C44.6655 36.3133 45 35.9788 45 35.5687V28.9057C45 28.4955 44.6655 28.1611 44.2554 28.1611H44.2496ZM26.1866 15.9283C26.1866 15.2289 26.7567 14.6632 27.4518 14.6632C28.1484 14.6632 28.7169 15.2332 28.7169 15.9283C28.7169 16.6249 28.1469 17.1935 27.4518 17.1935C26.7552 17.1935 26.1866 16.6235 26.1866 15.9283ZM11.489 34.8245V29.6506H14.3553V34.8245H11.489ZM39.1498 36.8648C39.1498 38.7786 37.5938 40.3375 35.6771 40.3375H19.3143C17.4006 40.3375 15.8417 38.7815 15.8417 36.8648V27.6103C15.8417 25.6966 17.3977 24.1376 19.3143 24.1376H35.6801C37.5938 24.1376 39.1528 25.6937 39.1528 27.6103V36.8648H39.1498ZM43.5051 34.8245H40.6388V29.6506H43.5051V34.8245Z" fill="#44087D"/>
</svg>
