<svg width="85" height="85" viewBox="0 0 85 85" fill="none" xmlns="http://www.w3.org/2000/svg">
<rect width="84.1408" height="84.1408" rx="42.0704" fill="#D6ABFF" fill-opacity="0.4"/>
<path d="M62.125 51.2368V32.9035C62.1242 32.0998 61.912 31.3104 61.5098 30.6145C61.1075 29.9186 60.5294 29.3408 59.8333 28.9389L43.7917 19.7723C43.0949 19.37 42.3045 19.1582 41.5 19.1582C40.6955 19.1582 39.9051 19.37 39.2083 19.7723L23.1667 28.9389C22.4706 29.3408 21.8925 29.9186 21.4902 30.6145C21.088 31.3104 20.8758 32.0998 20.875 32.9035V51.2368C20.8758 52.0406 21.088 52.83 21.4902 53.5258C21.8925 54.2217 22.4706 54.7995 23.1667 55.2014L39.2083 64.3681C39.9051 64.7704 40.6955 64.9821 41.5 64.9821C42.3045 64.9821 43.0949 64.7704 43.7917 64.3681L59.8333 55.2014C60.5294 54.7995 61.1075 54.2217 61.5098 53.5258C61.912 52.83 62.1242 52.0406 62.125 51.2368Z" stroke="#44087D" stroke-width="4.58333" stroke-linecap="round" stroke-linejoin="round"/>
<path d="M21.4922 30.52L41.4984 42.0929L61.5047 30.52" stroke="#44087D" stroke-width="4.58333" stroke-linecap="round" stroke-linejoin="round"/>
<path d="M41.5 65.1703V42.0703" stroke="#44087D" stroke-width="4.58333" stroke-linecap="round" stroke-linejoin="round"/>
</svg>
