<svg width="58" height="58" viewBox="0 0 58 58" fill="none" xmlns="http://www.w3.org/2000/svg">
<path d="M38.668 9.66675H43.5013C44.7832 9.66675 46.0126 10.176 46.919 11.0824C47.8254 11.9888 48.3346 13.2182 48.3346 14.5001V48.3334C48.3346 49.6153 47.8254 50.8447 46.919 51.7511C46.0126 52.6575 44.7832 53.1667 43.5013 53.1667H14.5013C13.2194 53.1667 11.99 52.6575 11.0836 51.7511C10.1772 50.8447 9.66797 49.6153 9.66797 48.3334V14.5001C9.66797 13.2182 10.1772 11.9888 11.0836 11.0824C11.99 10.176 13.2194 9.66675 14.5013 9.66675H19.3346" stroke="#D6ABFF" stroke-width="4.83333" stroke-linecap="round" stroke-linejoin="round"/>
<path d="M36.2487 4.83325H21.7487C20.414 4.83325 19.332 5.91523 19.332 7.24992V12.0833C19.332 13.4179 20.414 14.4999 21.7487 14.4999H36.2487C37.5834 14.4999 38.6654 13.4179 38.6654 12.0833V7.24992C38.6654 5.91523 37.5834 4.83325 36.2487 4.83325Z" stroke="#D6ABFF" stroke-width="4.83333" stroke-linecap="round" stroke-linejoin="round"/>
</svg>
