<svg width="28" height="64" viewBox="0 0 28 64" fill="none" xmlns="http://www.w3.org/2000/svg">
<path d="M27.7167 50.6352C27.7167 43.2798 21.5119 37.3171 13.858 37.3171C6.20441 37.3171 0 43.2798 0 50.6352C0 57.9906 6.20447 63.9534 13.858 63.9534C21.5119 63.9534 27.7167 57.9906 27.7167 50.6352ZM6.31165 50.6352C6.31165 46.6297 9.69021 43.3832 13.858 43.3832C18.0261 43.3832 21.405 46.6297 21.405 50.6352C21.405 54.6408 18.0261 57.8877 13.858 57.8877C9.69027 57.8878 6.31165 54.6408 6.31165 50.6352Z" fill="#D6ABFF"/>
<path d="M17.5615 0H10.1562V40.3499H17.5615V0Z" fill="#D6ABFF"/>
<path d="M15.0411 5.25806H5.27344V10.5656H15.0411V5.25806Z" fill="#D6ABFF"/>
<path d="M15.0394 14.8677H1.35156V20.1752H15.0394V14.8677Z" fill="#D6ABFF"/>
</svg>
