<svg width="58" height="58" viewBox="0 0 58 58" fill="none" xmlns="http://www.w3.org/2000/svg">
<path d="M24.168 31.4167C25.2058 32.8041 26.5299 33.9522 28.0505 34.7829C29.571 35.6137 31.2524 36.1077 32.9807 36.2315C34.709 36.3552 36.4436 36.1059 38.0671 35.5003C39.6905 34.8947 41.1647 33.9471 42.3896 32.7217L49.6396 25.4717C51.8407 23.1927 53.0586 20.1404 53.0311 16.9722C53.0036 13.804 51.7328 10.7734 49.4924 8.53302C47.2521 6.29268 44.2214 5.02188 41.0532 4.99435C37.885 4.96682 34.8327 6.18475 32.5538 8.38583L28.3971 12.5183" stroke="#D6ABFF" stroke-width="4.83333" stroke-linecap="round" stroke-linejoin="round"/>
<path d="M33.8284 26.5832C32.7906 25.1957 31.4665 24.0477 29.9459 23.217C28.4254 22.3862 26.744 21.8922 25.0157 21.7684C23.2874 21.6446 21.5528 21.894 19.9294 22.4996C18.3059 23.1052 16.8318 24.0528 15.6068 25.2782L8.35678 32.5282C6.1557 34.8072 4.93777 37.8594 4.9653 41.0277C4.99283 44.1959 6.26362 47.2265 8.50397 49.4669C10.7443 51.7072 13.775 52.978 16.9432 53.0055C20.1114 53.0331 23.1637 51.8151 25.4426 49.6141L29.5751 45.4816" stroke="#D6ABFF" stroke-width="4.83333" stroke-linecap="round" stroke-linejoin="round"/>
</svg>
