<svg width="44" height="41" viewBox="0 0 44 41" fill="none" xmlns="http://www.w3.org/2000/svg">
<path d="M43.5937 29.8528C43.4794 29.4222 43.2947 29.0138 43.0468 28.6438C43.0999 28.4491 43.1405 28.2511 43.1674 28.051C43.3435 26.7818 42.9034 25.6198 42.0743 24.7207C41.625 24.2297 41.1436 23.9054 40.6336 23.7063C40.9683 22.2742 41.1376 20.8085 41.1385 19.3379C41.1385 18.6661 41.1004 18.0081 41.0367 17.3599C41.0036 17.0362 40.9635 16.7133 40.9163 16.3914C40.7704 15.4413 40.5537 14.5034 40.2683 13.5857C40.0812 12.9826 39.8647 12.389 39.6196 11.8071C39.2524 10.9452 38.8236 10.1109 38.3366 9.31063C38.0171 8.77816 37.6692 8.26328 37.2944 7.76824C37.1107 7.51825 36.9193 7.27417 36.7201 7.03634C36.13 6.3193 35.4888 5.64595 34.8015 5.02158C34.5732 4.81168 34.3385 4.60897 34.0975 4.41372C33.8602 4.21583 33.6177 4.02434 33.3702 3.83941C32.8722 3.4687 32.3575 3.12093 31.8278 2.7972C28.9009 1.01948 25.4684 0 21.7997 0C11.1181 0 2.46102 8.65752 2.46102 19.3385C2.4606 20.8278 2.63306 22.312 2.97501 23.7614C2.51624 23.9606 2.07659 24.2711 1.6688 24.7203C0.839832 25.6189 0.399544 26.7767 0.575617 28.0459C0.602378 28.2475 0.64252 28.4471 0.696043 28.6434C0.448415 29.0136 0.263762 29.4222 0.149558 29.8528C-0.105312 30.8215 -0.0214174 31.695 0.30248 32.4605C-0.0496655 33.4609 0.038265 34.5262 0.496819 35.4525C0.830275 36.1289 1.30752 36.6523 1.89585 37.12C2.59525 37.676 3.47073 38.1484 4.52675 38.6016C5.78666 39.139 7.32459 39.6438 8.02399 39.829C9.8306 40.2967 11.5629 40.5932 13.3185 40.6077C15.8198 40.6308 17.9739 40.0427 19.5161 38.5375C20.2737 38.6303 21.0364 38.6768 21.7997 38.6764C22.6062 38.6747 23.4118 38.6239 24.2121 38.5245C25.7507 40.0393 27.913 40.6327 30.4235 40.6089C32.1789 40.5949 33.9112 40.2984 35.7131 39.8301C36.4172 39.6449 37.9545 39.14 39.215 38.6027C40.271 38.1488 41.1465 37.6764 41.8506 37.1212C42.4345 36.6533 42.9113 36.1302 43.245 35.4538C43.7082 34.5273 43.7915 33.4619 43.4442 32.4616C43.7649 31.6961 43.8484 30.8206 43.5937 29.8528ZM41.8011 32.3957C42.156 33.0692 42.1788 33.8302 41.8657 34.539C41.3908 35.613 40.2112 36.4592 37.9201 37.3676C36.4954 37.9326 35.1908 38.2939 35.1794 38.297C33.295 38.7858 31.5908 39.034 30.1155 39.034C27.6726 39.034 25.8547 38.3599 24.7019 37.0286C22.7523 37.3608 20.7618 37.3721 18.8086 37.0622C17.6543 38.3714 15.8468 39.034 13.4245 39.034C11.949 39.034 10.245 38.7858 8.36042 38.297C8.34895 38.2939 7.04487 37.9326 5.61972 37.3676C3.32885 36.4592 2.1488 35.6137 1.67411 34.539C1.36104 33.8302 1.38377 33.0692 1.73868 32.3957C1.77138 32.3331 1.80664 32.2721 1.84423 32.2131C1.63154 31.8936 1.48888 31.5328 1.42561 31.1541C1.36236 30.7756 1.37995 30.388 1.47722 30.0167C1.61825 29.4809 1.90944 29.0353 2.30491 28.7152C2.1144 28.4021 1.9894 28.0538 1.93747 27.691C1.82363 26.9022 2.08551 26.1147 2.67447 25.4724C3.13324 24.9726 3.78167 24.6976 4.49956 24.6976H4.51867C3.97739 22.9625 3.70296 21.1553 3.70479 19.3379C3.70479 9.42532 11.7409 1.38862 21.6549 1.38862C31.5687 1.38862 39.6048 9.42447 39.6048 19.3379C39.6063 21.1602 39.3299 22.9721 38.7852 24.7112C38.8718 24.7027 38.9568 24.6984 39.0402 24.6982C39.7581 24.6982 40.4068 24.9733 40.8651 25.473C41.4541 26.1147 41.7162 26.9028 41.6021 27.6917C41.5503 28.0544 41.4252 28.4028 41.2349 28.7158C41.6304 29.0359 41.9218 29.4815 42.0626 30.0174C42.1599 30.3886 42.1775 30.7762 42.1142 31.1549C42.0511 31.5334 41.9084 31.8943 41.6956 32.2137C41.7332 32.2721 41.7688 32.3331 41.8011 32.3957Z" fill="white"/>
<path d="M41.6983 32.2137C41.9111 31.8942 42.0538 31.5334 42.1171 31.1549C42.1802 30.7762 42.1626 30.3886 42.0653 30.0173C41.9243 29.4815 41.6329 29.0359 41.2376 28.7158C41.4281 28.4027 41.553 28.0544 41.6048 27.6916C41.7189 26.9028 41.457 26.1153 40.8678 25.473C40.4095 24.9732 39.7609 24.6982 39.043 24.6982C38.9595 24.6982 38.8745 24.7027 38.7879 24.7111C39.332 22.9721 39.6079 21.1604 39.606 19.3383C39.606 9.42553 31.57 1.38904 21.657 1.38904C11.7438 1.38904 3.70687 9.42468 3.70687 19.3383C3.70508 21.1557 3.97952 22.9629 4.52078 24.698H4.50164C3.78375 24.698 3.13534 24.9728 2.67679 25.4726C2.08783 26.1142 1.82571 26.9026 1.93977 27.6912C1.99174 28.054 2.11673 28.4025 2.3072 28.7156C1.91173 29.0354 1.62035 29.4811 1.47932 30.0169C1.38209 30.3884 1.36457 30.776 1.4279 31.1547C1.49124 31.5332 1.63396 31.8942 1.84674 32.2137C1.80893 32.2727 1.7741 32.3337 1.74118 32.3963C1.38649 33.0698 1.36357 33.8308 1.67685 34.5396C2.15176 35.6137 3.33136 36.4598 5.62243 37.3682C7.04695 37.9332 8.35169 38.2945 8.36316 38.2977C10.2475 38.7864 11.9517 39.0347 13.427 39.0347C15.8496 39.0347 17.657 38.372 18.8114 37.0628C20.7645 37.3727 22.7551 37.3612 24.7046 37.0292C25.8575 38.3605 27.6753 39.0347 30.1183 39.0347C31.5935 39.0347 33.2978 38.7864 35.1819 38.2977C35.1936 38.2945 36.4977 37.9332 37.9228 37.3682C40.2139 36.4598 41.3937 35.6137 41.8684 34.5396C42.1815 33.8308 42.1588 33.0698 41.8039 32.3963C41.7716 32.3333 41.7359 32.2721 41.6983 32.2137ZM17.9854 35.0132C17.886 35.187 17.7796 35.3567 17.6664 35.5217C17.3679 35.9586 16.9754 36.2925 16.5199 36.5405C15.649 37.0154 14.5467 37.1813 13.427 37.1813C11.658 37.1813 9.84459 36.7674 8.8283 36.5038C8.77817 36.4908 2.59799 34.7452 3.38044 33.2593C3.51213 33.0093 3.72874 32.9095 4.00167 32.9095C5.10335 32.9095 7.10939 34.55 7.97149 34.55C8.16413 34.55 8.30006 34.468 8.35549 34.2679C8.72293 32.9503 2.77107 32.3963 3.27231 30.4882C3.36067 30.1505 3.60069 30.0133 3.93797 30.0133C5.39456 30.0131 8.66369 32.5748 9.34738 32.5748C9.39985 32.5748 9.43742 32.5592 9.45781 32.527C9.46078 32.5221 9.46377 32.5174 9.46654 32.5123C9.78746 31.9824 9.6033 31.5971 7.40483 30.2505L7.19371 30.122C4.77435 28.6578 3.07628 27.7766 4.04202 26.7253C4.1531 26.604 4.3107 26.5503 4.50206 26.5503C4.7289 26.5503 5.00352 26.6261 5.30597 26.7535C6.58372 27.2923 8.35466 28.7619 9.09443 29.4027C9.21079 29.5038 9.32642 29.6059 9.44124 29.7087C9.44124 29.7087 10.3779 30.6828 10.9441 30.6828C11.0746 30.6828 11.1852 30.6314 11.2602 30.5044C11.6618 29.8272 7.52992 26.6962 7.29693 25.4042C7.13891 24.5289 7.4078 24.0854 7.9048 24.0854C8.14119 24.0854 8.42962 24.1861 8.74799 24.3881C9.73561 25.0149 11.6425 28.2917 12.3406 29.5664C12.5747 29.9936 12.9742 30.1741 13.3342 30.1741C14.0484 30.1741 14.6068 29.4641 13.3996 28.5618C11.5851 27.2042 12.2219 24.9851 13.0878 24.8486C13.1248 24.8426 13.1621 24.8396 13.1993 24.8396C13.9869 24.8396 14.3341 26.1966 14.3341 26.1966C14.3341 26.1966 15.3523 28.7534 17.1014 30.5012C18.6884 32.0875 18.9101 33.3893 17.9854 35.0132ZM23.6412 35.3127L23.5505 35.3235L23.3958 35.3412C23.3145 35.3497 23.2329 35.3577 23.1512 35.3652L23.0715 35.3724L22.9987 35.3785L22.8954 35.3868L22.7814 35.3951L22.6676 35.4025L22.6423 35.4042C22.6125 35.4059 22.5828 35.4078 22.5526 35.4093L22.5146 35.4115C22.4794 35.4134 22.4441 35.4151 22.4084 35.4166L22.285 35.4219L22.1731 35.4257L22.0983 35.4278H22.0603C22.037 35.4278 22.0138 35.4291 21.9904 35.4293H21.9535C21.9301 35.4293 21.907 35.4293 21.8836 35.4304L21.7885 35.4316H21.6557C21.5514 35.4316 21.4474 35.4306 21.3437 35.4284L21.2596 35.4265C21.2356 35.4265 21.2116 35.4255 21.188 35.4246L21.0988 35.4221L20.9882 35.4178L20.8883 35.4134L20.8626 35.4123L20.7677 35.4074C20.7412 35.4059 20.715 35.4047 20.6887 35.4027L20.6273 35.3991C20.5502 35.3943 20.4731 35.3889 20.396 35.383L20.3153 35.3764C20.2813 35.3739 20.2473 35.3707 20.2136 35.3677C20.1739 35.3643 20.1341 35.3605 20.0944 35.3567C20.0279 35.3505 19.9615 35.3437 19.895 35.3365H19.8918C20.8624 33.1711 20.3716 31.1488 18.4102 29.189C17.1237 27.9042 16.268 26.0072 16.0904 25.5907C15.731 24.3577 14.7799 22.9872 13.2004 22.9872C13.0668 22.9872 12.9334 22.9978 12.8015 23.0186C12.1095 23.1276 11.5047 23.5258 11.0731 24.1252C10.6067 23.5451 10.1534 23.084 9.74349 22.8236C9.12543 22.4318 8.50863 22.233 7.90777 22.233C7.15781 22.233 6.4875 22.5409 6.02024 23.0995L6.00835 23.1137C5.99943 23.077 5.99093 23.0403 5.98222 23.0033L5.98116 22.9984C5.89223 22.6182 5.81758 22.2349 5.7573 21.849C5.7573 21.8464 5.7573 21.8439 5.75603 21.8413C5.75135 21.8122 5.74711 21.7829 5.74265 21.7538C5.72958 21.6676 5.71733 21.5811 5.7059 21.4947C5.7008 21.4554 5.69528 21.4161 5.6904 21.3768L5.67595 21.2589C5.67128 21.2196 5.66746 21.184 5.66321 21.1466L5.66196 21.1372C5.64499 20.9843 5.63012 20.8314 5.61733 20.678L5.61266 20.6192L5.60523 20.519C5.6031 20.4916 5.60098 20.4639 5.59949 20.4363C5.59949 20.4298 5.59843 20.4234 5.59822 20.4172C5.59282 20.3403 5.58822 20.2632 5.58441 20.1861C5.58229 20.146 5.58017 20.1061 5.57847 20.0657L5.57422 19.9604L5.57316 19.9285L5.56976 19.8314L5.56763 19.7488C5.56763 19.7159 5.56594 19.683 5.56551 19.6501C5.56487 19.6171 5.56402 19.581 5.56381 19.5462C5.56339 19.5114 5.56381 19.477 5.56275 19.4423C5.5619 19.4075 5.56275 19.3729 5.56275 19.3383C5.56275 10.449 12.7694 3.24237 21.6595 3.24237C30.5494 3.24237 37.7559 10.4488 37.7559 19.3383V19.5462C37.7559 19.5808 37.7548 19.6157 37.7542 19.6501C37.7542 19.6787 37.7529 19.707 37.7521 19.7361C37.7521 19.7616 37.751 19.7873 37.7501 19.8119C37.7501 19.8444 37.7482 19.8769 37.7472 19.9094V19.9119L37.7427 20.0247C37.7412 20.0576 37.7399 20.0908 37.7383 20.1237L37.7372 20.1471L37.7315 20.2524C37.7189 20.4782 37.7017 20.7035 37.6803 20.9287V20.9314C37.6767 20.9684 37.673 21.0053 37.669 21.0423L37.6595 21.1296L37.6405 21.3003L37.6297 21.3868L37.6163 21.4885C37.6115 21.5255 37.6066 21.5626 37.601 21.5994C37.5955 21.6408 37.5894 21.682 37.5832 21.7232L37.5685 21.8207L37.5511 21.9311C37.5452 21.9679 37.5388 22.0044 37.532 22.041C37.525 22.0777 37.5195 22.1142 37.5131 22.1508C37.5004 22.2238 37.487 22.2969 37.473 22.3697C37.4515 22.4787 37.4296 22.5874 37.4071 22.6962L37.3838 22.8039C37.3761 22.8398 37.3678 22.8759 37.3598 22.9118C36.9067 22.4715 36.3067 22.2317 35.6451 22.2317C35.0447 22.2317 34.4273 22.4303 33.8094 22.8221C33.3995 23.0825 32.9465 23.5438 32.4798 24.1237C32.0476 23.5243 31.4427 23.1261 30.7512 23.0171C30.6193 22.9963 30.4859 22.9857 30.3523 22.9857C28.7723 22.9857 27.8219 24.3562 27.4623 25.5892C27.2839 26.0057 26.4279 27.9028 25.1404 29.1894C23.1803 31.143 22.6858 33.1563 23.6412 35.3127ZM40.2589 30.978L40.2525 30.9969C40.2364 31.0396 40.2177 31.0812 40.1967 31.1216C40.1808 31.1513 40.1636 31.1802 40.1449 31.2082C40.1094 31.2611 40.0705 31.3117 40.0283 31.3592C40.0185 31.3703 40.0091 31.3813 39.9981 31.3922C39.9828 31.4085 39.9673 31.4246 39.9514 31.4404C39.6655 31.7237 39.2297 31.9722 38.7369 32.2001C38.6811 32.2254 38.6244 32.2506 38.5672 32.2761L38.5103 32.3014C38.4723 32.3182 38.4343 32.3347 38.3943 32.3511C38.3563 32.3677 38.3168 32.3842 38.2773 32.4004L38.1588 32.4492C37.8816 32.5633 37.5976 32.672 37.3207 32.7793L37.2022 32.8254L37.0851 32.8713C37.0072 32.9016 36.9303 32.932 36.8547 32.9624L36.7419 33.0078L36.6311 33.0531L36.5767 33.076C36.5404 33.0911 36.5049 33.1062 36.4694 33.1212C35.6545 33.471 35.0681 33.8268 35.1912 34.2682C35.1946 34.2807 35.1985 34.2926 35.2027 34.3043C35.2138 34.337 35.2288 34.3678 35.2477 34.3969C35.2588 34.4141 35.2715 34.4304 35.2858 34.4453C35.4306 34.5959 35.6942 34.5721 36.0266 34.4525C36.0733 34.4353 36.1198 34.4175 36.1659 34.3988L36.1948 34.3869C36.2708 34.3546 36.3513 34.3185 36.4335 34.2794C36.4541 34.2696 36.4749 34.2603 36.4958 34.2495C36.9023 34.0507 37.363 33.783 37.82 33.5394C38.0029 33.4407 38.1883 33.347 38.3761 33.258C38.8089 33.0543 39.2159 32.9099 39.5429 32.9099C39.6965 32.9099 39.832 32.9413 39.945 33.0136L39.9639 33.0261C40.0348 33.076 40.0943 33.1401 40.1387 33.2145C40.1474 33.2287 40.1559 33.2438 40.1642 33.2593C40.3258 33.5662 40.1905 33.8839 39.8739 34.1955C39.5699 34.4948 39.0971 34.7881 38.5598 35.0595C38.5199 35.0797 38.4799 35.0999 38.4394 35.1196C36.84 35.9051 34.7456 36.4966 34.7165 36.504C34.1584 36.6486 33.3602 36.8385 32.4609 36.9806L32.328 37.0014L32.3061 37.0046C32.2054 37.0199 32.1046 37.0341 32.0035 37.0473C31.9009 37.0611 31.7972 37.0736 31.6929 37.0853L31.6738 37.0874C31.2958 37.131 30.9162 37.1599 30.5358 37.1737H30.5303C30.3927 37.1786 30.2553 37.1811 30.1176 37.1811H29.959C29.7491 37.1783 29.5397 37.1688 29.3305 37.1526C29.3256 37.1526 29.3203 37.1526 29.3154 37.1514C29.2404 37.1456 29.1657 37.1386 29.0909 37.1303C29.0134 37.1221 28.9361 37.1127 28.859 37.1023C28.8082 37.0955 28.7577 37.0879 28.7071 37.0796C28.6557 37.0713 28.6043 37.0628 28.5531 37.0539L28.4833 37.0407L28.478 37.0397C28.4043 37.0256 28.331 37.0101 28.2579 36.9931C28.2154 36.9836 28.1732 36.9742 28.1313 36.9628L28.1061 36.9564C28.0852 36.9513 28.0651 36.9458 28.0445 36.9403L28.0332 36.9373L27.9678 36.9182C27.944 36.9116 27.9202 36.9044 27.8964 36.8974L27.8881 36.895L27.8263 36.8761C27.803 36.8689 27.7796 36.8612 27.7565 36.8536L27.6995 36.8347L27.6577 36.82C27.6173 36.8058 27.5772 36.7912 27.5375 36.7759L27.4997 36.761L27.4685 36.7487C27.4081 36.7245 27.3482 36.6992 27.289 36.6726L27.2497 36.6535L27.2431 36.6506C27.2291 36.644 27.2153 36.6374 27.2013 36.6317C27.1739 36.6185 27.1467 36.6049 27.1197 36.5911L27.1114 36.587L27.0723 36.5664C27.0029 36.5301 26.9349 36.4915 26.8682 36.4505L26.8317 36.428C26.8134 36.4167 26.7952 36.405 26.7773 36.3931L26.7298 36.3617L26.6786 36.3264L26.648 36.3046C26.6157 36.2816 26.5841 36.2578 26.553 36.2334L26.5036 36.1954C26.4838 36.1795 26.4643 36.1633 26.4449 36.147C26.4286 36.1336 26.4127 36.1196 26.3967 36.1056L26.3955 36.1045C26.3782 36.0894 26.3615 36.0743 26.3447 36.0588C26.3281 36.0438 26.3116 36.0285 26.2954 36.013L26.2935 36.011C26.2765 35.9949 26.2599 35.9785 26.2436 35.9618C26.2272 35.9452 26.2105 35.9286 26.1945 35.9116C26.1786 35.8949 26.1622 35.8777 26.1465 35.86C26.1308 35.8426 26.1164 35.8267 26.1015 35.8095L26.0966 35.8037C26.0822 35.7872 26.0679 35.7704 26.0539 35.7532C26.0236 35.7169 25.994 35.6797 25.9656 35.6417C25.9369 35.6035 25.9089 35.5644 25.8815 35.5247L25.8553 35.4856C25.8205 35.4346 25.7865 35.3832 25.7536 35.331C25.729 35.2934 25.705 35.2556 25.6816 35.2171C25.6665 35.1931 25.6521 35.1689 25.6376 35.1451L25.6317 35.1353C25.6179 35.112 25.6043 35.089 25.5911 35.0659C25.5835 35.0534 25.5763 35.0408 25.5695 35.0279C25.5625 35.0147 25.5544 35.0013 25.5469 34.9879L25.5348 34.9669L25.5274 34.9533C25.5132 34.9278 25.4992 34.9021 25.4856 34.8762C25.4792 34.8648 25.473 34.8533 25.4665 34.8422L25.4475 34.8055L25.4284 34.7692C25.3806 34.6736 25.3354 34.5768 25.2929 34.4786L25.2778 34.4427C25.2681 34.4187 25.2589 34.395 25.2492 34.3714C25.2445 34.3599 25.2398 34.3486 25.2358 34.3372C25.2131 34.2783 25.1918 34.2189 25.1723 34.159C25.1653 34.1375 25.1585 34.1165 25.1521 34.0953C25.1368 34.0471 25.123 33.9984 25.1107 33.9494C25.0956 33.8922 25.0822 33.8347 25.071 33.7767C25.0686 33.765 25.0663 33.7533 25.0644 33.7421C25.0533 33.6853 25.0444 33.6282 25.0374 33.5709C25.0357 33.5596 25.0344 33.5484 25.0332 33.5371L25.0296 33.5027C25.0249 33.4577 25.0213 33.4124 25.0192 33.3672C25.0192 33.3557 25.0181 33.3442 25.0177 33.3332C25.0166 33.3107 25.0162 33.2882 25.016 33.2657C25.0041 32.3581 25.4633 31.4856 26.4452 30.5041C28.1942 28.7568 29.2124 26.1998 29.2124 26.1998C29.2124 26.1998 29.2398 26.0925 29.2967 25.9381C29.3046 25.9167 29.3129 25.8946 29.3222 25.8714C29.3554 25.785 29.3927 25.7 29.4341 25.6172L29.4424 25.6013C29.4777 25.5308 29.5163 25.462 29.558 25.3951C29.5677 25.3795 29.5771 25.3643 29.5879 25.3487C29.6191 25.3027 29.6521 25.2576 29.6867 25.2141C29.7056 25.1905 29.7262 25.1672 29.7468 25.1444C29.7551 25.1355 29.7631 25.1266 29.7718 25.1181C29.8732 25.0134 29.9889 24.928 30.12 24.8825L30.1365 24.877C30.1476 24.8734 30.1586 24.87 30.1699 24.8668C30.1828 24.8634 30.1958 24.8605 30.2092 24.8577L30.2153 24.8564C30.2429 24.8509 30.271 24.8473 30.2992 24.8454H30.3016C30.3162 24.8454 30.3311 24.8439 30.3462 24.8439C30.3651 24.8439 30.3827 24.8439 30.4012 24.8458C30.4203 24.8475 30.4392 24.8496 30.4583 24.8526C30.6159 24.8777 30.7658 24.9715 30.895 25.1164C30.944 25.1716 30.9882 25.2311 31.0269 25.2939C31.0524 25.3347 31.0764 25.3778 31.0991 25.4233C31.1082 25.4422 31.1169 25.4596 31.1254 25.4783C31.1475 25.5263 31.1675 25.5752 31.1849 25.6251C31.2263 25.7419 31.2575 25.8621 31.2781 25.9844C31.296 26.0917 31.3066 26.2 31.31 26.3085C31.3117 26.3665 31.3117 26.4254 31.31 26.4846C31.2985 26.7603 31.242 27.0324 31.1428 27.29C31.1339 27.3136 31.1239 27.3374 31.1144 27.3612C31.0948 27.4092 31.0734 27.4563 31.0502 27.5024C31.033 27.5374 31.015 27.5727 30.9954 27.6078C30.9827 27.6311 30.9693 27.6545 30.9559 27.6778C30.9217 27.736 30.8848 27.7938 30.8451 27.8514L30.8211 27.8858C30.7272 28.0166 30.6227 28.1394 30.5084 28.2528C30.3959 28.3656 30.2752 28.4698 30.1476 28.565C30.0197 28.6597 29.8997 28.7646 29.7888 28.8787C29.4696 29.2136 29.3953 29.5093 29.4671 29.7334C29.4785 29.7686 29.4936 29.8028 29.5119 29.8351C29.5333 29.8721 29.5588 29.906 29.5877 29.9371L29.599 29.9487L29.6104 29.9602C29.6219 29.9712 29.634 29.9821 29.647 29.9927L29.6597 30.0029C29.6905 30.0267 29.7232 30.0479 29.7574 30.0666C29.7674 30.0719 29.7763 30.0772 29.7876 30.0823C29.8245 30.1004 29.8625 30.1159 29.9016 30.1284C29.9125 30.132 29.9233 30.1352 29.9343 30.1386L29.9481 30.1422L29.9672 30.1473L29.9836 30.1514L30.0014 30.1552L30.0191 30.1588L30.0359 30.1616C30.0482 30.1637 30.0609 30.1658 30.0737 30.1673L30.0858 30.1692L30.1079 30.1713L30.1214 30.1728L30.1437 30.1743H30.1569L30.1803 30.1756H30.2538L30.2748 30.1743L30.299 30.1728L30.3285 30.17L30.3561 30.1669C30.3625 30.1669 30.3689 30.1652 30.3753 30.1639C30.4602 30.1516 30.5435 30.1291 30.6231 30.0968L30.6569 30.0825C30.6758 30.0743 30.6949 30.0656 30.7123 30.0562C30.7497 30.0375 30.786 30.0163 30.8209 29.9931C30.8695 29.9613 30.9154 29.9256 30.9583 29.8863C30.9685 29.8772 30.9784 29.8674 30.9882 29.858C30.9931 29.8534 30.9978 29.8489 31.0024 29.8438C31.0118 29.8343 31.0214 29.8249 31.0307 29.8145C31.0987 29.7397 31.1575 29.6573 31.2059 29.5688C31.6216 28.8129 32.0572 28.0682 32.5123 27.3357L32.5748 27.2356L32.6379 27.1356C32.6693 27.0848 32.7012 27.0349 32.7328 26.9852L32.7647 26.9355C32.8704 26.7699 32.9779 26.6053 33.0873 26.4419L33.1521 26.3451C33.2821 26.1524 33.4116 25.9651 33.5401 25.7871L33.604 25.699C33.7438 25.5063 33.8893 25.3177 34.0403 25.1338L34.1002 25.062C34.1102 25.0501 34.1193 25.0382 34.1301 25.0268C34.1499 25.0034 34.1696 24.9807 34.189 24.9586C34.1987 24.9473 34.2079 24.9363 34.2183 24.9252L34.2752 24.8611L34.3037 24.8299C34.3323 24.7991 34.3604 24.7696 34.388 24.7413C34.4071 24.7222 34.4247 24.7033 34.443 24.6854C34.5507 24.5754 34.6694 24.4767 34.7975 24.3911L34.8272 24.372C34.8557 24.3528 34.8852 24.335 34.9153 24.3189C35.4174 24.0338 35.8331 24.0128 36.0725 24.2522C36.2173 24.397 36.2976 24.6372 36.2931 24.9715C36.2931 24.9862 36.2931 25.0011 36.2921 25.0164V25.0327C36.2921 25.048 36.2908 25.0633 36.2895 25.0788C36.2895 25.0979 36.2874 25.1168 36.2855 25.1359C36.2836 25.1548 36.2825 25.1693 36.2806 25.1863C36.2806 25.1909 36.2798 25.1958 36.2789 25.2009C36.2776 25.2156 36.2757 25.2307 36.2736 25.2457C36.2736 25.2502 36.2736 25.2549 36.2719 25.2595C36.2696 25.2797 36.2666 25.2997 36.2632 25.3197C36.2608 25.3388 36.2577 25.3566 36.2543 25.3753L36.2487 25.4069C36.2432 25.4371 36.2362 25.4668 36.2275 25.4961C36.2109 25.5512 36.191 25.6049 36.1674 25.6571C36.1345 25.7289 36.0982 25.7988 36.0582 25.8668C36.0361 25.9046 36.0134 25.9417 35.9898 25.9785C35.9656 26.0165 35.9401 26.055 35.9138 26.0938C35.8467 26.1898 35.777 26.2839 35.7046 26.3759L35.6715 26.4177C35.5534 26.5649 35.4315 26.7091 35.3057 26.8499L35.266 26.8945C35.2125 26.9542 35.1581 27.0143 35.1025 27.0746L35.0606 27.1201C35.0328 27.1505 35.0037 27.1808 34.9757 27.2114C34.9478 27.2418 34.9187 27.2726 34.8894 27.3034L34.8021 27.3954L34.7136 27.488L34.6244 27.5806C34.5645 27.6426 34.5044 27.7046 34.4438 27.7666C33.5826 28.65 32.6752 29.5303 32.3681 30.0791C32.3475 30.1148 32.3291 30.1518 32.3125 30.1894C32.2687 30.2892 32.2505 30.3746 32.263 30.4436C32.267 30.4663 32.2749 30.488 32.2866 30.508C32.3038 30.5379 32.3248 30.5655 32.3492 30.5902C32.3605 30.6012 32.3724 30.6114 32.3849 30.6207C32.4482 30.6658 32.5245 30.6889 32.6022 30.6868H32.6264L32.6512 30.6849L32.6761 30.6821L32.6967 30.6792C32.6995 30.6787 32.7024 30.6783 32.7052 30.6775L32.7241 30.6738L32.729 30.6728L32.75 30.6683L32.7574 30.6664C32.7649 30.6645 32.7721 30.6626 32.7795 30.6605C32.787 30.6583 32.7972 30.6556 32.8061 30.6526C32.8435 30.6413 32.88 30.628 32.9159 30.6127C32.9348 30.605 32.9533 30.5967 32.9715 30.5878C32.9811 30.5836 32.9907 30.5791 32.9996 30.5744L33.028 30.5604C33.096 30.5252 33.1623 30.4867 33.2268 30.4455L33.2551 30.4264C33.2646 30.4205 33.2742 30.4143 33.2833 30.4075L33.3116 30.3886L33.3267 30.3782L33.3674 30.3495C33.4055 30.3234 33.4409 30.2964 33.4768 30.269L33.48 30.2665L33.5371 30.2223C33.6151 30.1607 33.689 30.0987 33.7561 30.0403L33.8007 30.0012L33.8047 29.9974L33.8281 29.9768C33.8829 29.9275 33.9318 29.8816 33.9723 29.8438L33.9891 29.8275C34.0038 29.8137 34.0171 29.8007 34.0292 29.7897L34.053 29.7661L34.0615 29.7578L34.0639 29.7555L34.0887 29.7306L34.1044 29.7143L34.1063 29.7128L34.1138 29.706L34.1231 29.6975L34.1261 29.6947L34.134 29.6875L34.1773 29.6495L34.2015 29.6278C34.2145 29.6166 34.227 29.6051 34.2395 29.5934L34.2684 29.5677C34.2737 29.5635 34.2788 29.5588 34.2841 29.5541L34.3145 29.5276L34.3591 29.4883L34.3829 29.4677C34.4753 29.3874 34.5876 29.2903 34.7168 29.1809L34.7696 29.1361L34.8569 29.0628L34.9464 28.9883C35.0632 28.8912 35.1889 28.7882 35.3219 28.6814L35.4092 28.6113C35.4835 28.552 35.5597 28.4917 35.6371 28.431C35.6683 28.4066 35.6999 28.3821 35.7322 28.3579C35.8112 28.2965 35.8907 28.2356 35.9707 28.1755C36.153 28.0378 36.3409 27.9 36.5312 27.7658L36.6128 27.7088C36.6699 27.6696 36.7268 27.6301 36.7838 27.5916L36.8354 27.5568C36.9371 27.4877 37.0403 27.4204 37.1444 27.3548L37.196 27.3223L37.2472 27.2904C37.2986 27.2586 37.3496 27.2274 37.4003 27.197L37.4511 27.1666L37.5526 27.1076L37.6522 27.0504L37.6724 27.0394L37.7512 26.9961C37.7841 26.9782 37.8168 26.961 37.8495 26.9442L37.8982 26.9192L37.9455 26.8954C37.9621 26.8875 37.9785 26.8792 37.9946 26.8714C38.1012 26.8187 38.21 26.7703 38.3204 26.7261C38.3504 26.7134 38.3801 26.7019 38.4096 26.6919L38.4967 26.6613C38.5228 26.6526 38.5483 26.6443 38.5727 26.6369L38.5812 26.6344C38.5944 26.6301 38.6076 26.6263 38.6205 26.6229L38.6243 26.6218C38.6515 26.614 38.6785 26.6072 38.7051 26.6008H38.707C38.7822 26.5827 38.8586 26.5698 38.9357 26.5619C38.9712 26.5583 39.0067 26.5564 39.0423 26.5566H39.0602C39.084 26.5566 39.1069 26.5581 39.1296 26.5604C39.14 26.5604 39.1504 26.5626 39.1606 26.5638H39.1649C39.1751 26.5651 39.1853 26.5666 39.1955 26.5689C39.2055 26.5709 39.2156 26.5726 39.2254 26.5749H39.2286C39.2386 26.577 39.2475 26.5796 39.2579 26.5825C39.3119 26.5976 39.3633 26.621 39.4104 26.6516C39.4336 26.6666 39.4552 26.6836 39.4752 26.7025L39.4809 26.7081C39.4847 26.7115 39.4884 26.7151 39.4918 26.7187L39.5022 26.7299C39.5875 26.8193 39.6581 26.9219 39.7112 27.0337L39.7192 27.0528C39.7373 27.0952 39.7515 27.1392 39.7617 27.184C39.7919 27.3212 39.7802 27.4644 39.7281 27.595C39.7084 27.6477 39.6844 27.6984 39.6562 27.7469C39.5901 27.8582 39.5117 27.9616 39.4227 28.0553L39.4038 28.0754C39.3756 28.1052 39.3463 28.1349 39.3155 28.1646C39.3019 28.178 39.2877 28.1912 39.2734 28.2046L39.2299 28.2447L39.2071 28.2649C39.1524 28.3137 39.0961 28.3611 39.0389 28.407C39.0043 28.435 38.9695 28.4624 38.9342 28.4894C38.8098 28.5845 38.683 28.6763 38.5538 28.7649C38.4759 28.8184 38.3973 28.8708 38.3181 28.9227C38.1229 29.0507 37.9256 29.1756 37.7264 29.2971C37.3084 29.5541 36.8451 29.8289 36.3513 30.1278L36.2235 30.2053C36.0835 30.2907 35.9514 30.3722 35.8269 30.45L35.7643 30.4893L35.6458 30.5653C35.5672 30.6156 35.4888 30.6664 35.4104 30.7172L35.3474 30.7588C35.3166 30.7788 35.286 30.7992 35.2554 30.8195L35.2254 30.8387L35.1337 30.9005L35.085 30.9338L35.0281 30.9733L34.9752 31.0101C34.8867 31.0727 34.8043 31.1324 34.7284 31.1891L34.7 31.2108C34.6554 31.2445 34.6112 31.2789 34.5677 31.314C34.502 31.3669 34.4421 31.4174 34.3884 31.4661L34.3621 31.4901C34.347 31.5039 34.3321 31.5177 34.3179 31.5313C34.3081 31.5408 34.299 31.5504 34.2888 31.5595L34.2752 31.5731C34.2448 31.6037 34.2151 31.6349 34.1864 31.667L34.1724 31.6831C34.1412 31.7192 34.114 31.7539 34.0902 31.7876L34.0796 31.8027C34.0609 31.8299 34.0437 31.8579 34.0282 31.8868C34.0242 31.894 34.0205 31.9013 34.0169 31.9085L34.0065 31.9301L33.9995 31.9459L33.9951 31.9565L33.9914 31.966L33.9866 31.979C33.9734 32.0149 33.9643 32.0523 33.9589 32.0901L33.9572 32.1032L33.956 32.1156V32.1825C33.956 32.188 33.956 32.1935 33.9575 32.1995L33.9585 32.2096C33.9585 32.2152 33.9598 32.2205 33.9606 32.2264C33.9615 32.232 33.963 32.2419 33.9647 32.2498V32.2509C33.9662 32.2583 33.9677 32.2655 33.9696 32.2729C33.9715 32.2804 33.9734 32.2889 33.9757 32.2965C33.9798 32.3116 33.9849 32.3265 33.9902 32.3413C33.9936 32.3503 33.9967 32.359 34.0004 32.3677C34.0004 32.3694 34.0016 32.3713 34.0025 32.373L34.0101 32.3902L34.0208 32.4138C34.0322 32.4382 34.0448 32.462 34.0583 32.4851L34.0724 32.5093L34.0868 32.5335C34.0894 32.5376 34.0923 32.5414 34.0955 32.545L34.1002 32.5499L34.1055 32.5548L34.111 32.559C34.1191 32.5648 34.1278 32.5692 34.1369 32.5724C34.1418 32.5741 34.1469 32.5754 34.152 32.5767C34.2746 32.6043 34.5265 32.503 34.8612 32.3263C34.8801 32.3161 34.9009 32.3054 34.9211 32.2944L35.023 32.2387L35.0727 32.2111C35.1082 32.1922 35.1443 32.1708 35.1813 32.1498L35.2486 32.1117C35.691 31.8571 36.2194 31.53 36.7657 31.2106C36.8169 31.1806 36.8683 31.1507 36.9197 31.1211L37.0229 31.0551C37.1427 30.9865 37.2631 30.9187 37.384 30.8518C37.5363 30.7681 37.6896 30.6866 37.8444 30.6076L37.9455 30.5564C38.0127 30.5233 38.0791 30.491 38.1448 30.4595C38.2718 30.3992 38.4003 30.3419 38.5303 30.2877L38.6014 30.2588L38.6099 30.2554C38.9869 30.1061 39.3286 30.0139 39.6052 30.0139C39.6649 30.0133 39.7248 30.0184 39.7836 30.0286H39.7855C39.8044 30.032 39.8216 30.0358 39.8392 30.0401H39.8424C39.8877 30.0515 39.9316 30.0679 39.9733 30.0889C40.0317 30.1191 40.0841 30.1592 40.1285 30.2076C40.1489 30.2302 40.167 30.2546 40.1829 30.2805C40.2126 30.3262 40.236 30.3756 40.2528 30.4275C40.2596 30.4476 40.2655 30.4674 40.2717 30.4884C40.3165 30.6492 40.312 30.8198 40.2589 30.978Z" fill="#FF9D00"/>
<path fill-rule="evenodd" clip-rule="evenodd" d="M37.7488 19.4424V19.3381C37.7488 10.4487 30.5449 3.24243 21.6548 3.24243C12.765 3.24243 5.55829 10.4491 5.55829 19.3381V19.373C5.55786 19.3961 5.55765 19.4193 5.55829 19.4424C5.55933 19.477 5.55969 19.5117 5.55935 19.5463L5.56043 19.6227L5.56105 19.6501C5.56105 19.6629 5.56149 19.6754 5.56192 19.6882C5.56256 19.7083 5.56296 19.7287 5.56296 19.7489L5.56529 19.8315L5.56869 19.9286L5.56976 19.9604L5.574 20.0609V20.0658C5.5757 20.1051 5.57785 20.1442 5.57976 20.1832L5.57995 20.1862C5.58207 20.2261 5.58422 20.2663 5.58677 20.3064C5.58889 20.3434 5.59099 20.3803 5.59376 20.4173L5.5942 20.4239C5.59605 20.4555 5.59817 20.4874 5.60055 20.519L5.60119 20.5275L5.6082 20.6193L5.60886 20.6252C5.61013 20.6431 5.61138 20.6609 5.61308 20.6781C5.62578 20.8313 5.64059 20.9844 5.65749 21.1371L5.65854 21.1467L5.67149 21.259L5.68596 21.3769L5.69655 21.457L5.70144 21.4946C5.71276 21.5812 5.72501 21.6677 5.73818 21.7539L5.73905 21.7596L5.75156 21.8412C5.8122 22.2296 5.8873 22.6158 5.9767 22.9987L5.97778 23.0034L5.98456 23.0321L6.00388 23.1138L6.01578 23.0996C6.48304 22.541 7.15335 22.233 7.90331 22.233C8.50438 22.233 9.12097 22.4318 9.73903 22.8237C10.1489 23.0841 10.6022 23.5452 11.0686 24.1252C11.5002 23.5259 12.1051 23.1274 12.7971 23.0187C12.929 22.9979 13.0624 22.9875 13.1959 22.9872C14.7753 22.9872 15.7266 24.3578 16.0859 25.5907C16.2635 26.0072 17.1192 27.9043 18.4097 29.1876C20.3714 31.1473 20.8622 33.1695 19.8913 35.3349H19.8947C19.9608 35.3423 20.0273 35.3491 20.0942 35.3553C20.1339 35.3591 20.1734 35.3629 20.2133 35.3663L20.2274 35.3676L20.3151 35.375L20.3958 35.3814C20.4727 35.3873 20.5498 35.3928 20.6271 35.3977L20.6885 35.4013L20.7371 35.4043L20.7673 35.406L20.8622 35.4109L20.8881 35.412L20.9877 35.4164L21.0986 35.4207L21.1876 35.4232L21.2024 35.4236C21.2213 35.4245 21.2403 35.4251 21.2592 35.4251L21.2795 35.4258C21.4049 35.4287 21.53 35.4302 21.6553 35.43H21.7882L21.8832 35.429C21.9065 35.4279 21.9297 35.4279 21.9533 35.4279H21.9902L22.0223 35.427C22.0348 35.4266 22.0473 35.4262 22.0601 35.4262H22.0981L22.1727 35.4243L22.2848 35.4205L22.4082 35.4149C22.4439 35.4137 22.4791 35.4118 22.5144 35.4101L22.5524 35.4077L22.6089 35.4047L22.642 35.4028L22.6671 35.4011L22.7812 35.3937L22.895 35.3854L22.9984 35.3771L23.0711 35.371L23.1509 35.3638C23.2843 35.3519 23.4173 35.3378 23.5502 35.3219L23.6409 35.3111C22.6854 33.1549 23.18 31.1414 25.1334 29.1895C26.4211 27.9028 27.2769 26.0058 27.4553 25.589C27.8148 24.3563 28.7655 22.9858 30.3453 22.9858C30.4789 22.9858 30.6125 22.9964 30.7444 23.0172C31.4357 23.1259 32.0406 23.5244 32.4728 24.1238C32.9394 23.5439 33.3925 23.0824 33.8026 22.822C34.4205 22.4304 35.0377 22.2316 35.6381 22.2316C36.2999 22.2316 36.8997 22.4716 37.3527 22.9118C37.361 22.8759 37.3691 22.8401 37.3769 22.8039L37.4001 22.6965C37.4084 22.6572 37.4167 22.6179 37.4245 22.5786C37.4385 22.5091 37.4526 22.4397 37.4659 22.3696C37.48 22.297 37.4933 22.2239 37.5061 22.1508L37.5127 22.1113C37.5167 22.088 37.5205 22.0646 37.525 22.041C37.5322 22.0045 37.5382 21.968 37.5441 21.931L37.5464 21.917L37.5615 21.8208L37.5764 21.7233V21.7224C37.5872 21.6504 37.5974 21.5784 37.607 21.5064L37.6093 21.4886L37.6227 21.3871L37.6335 21.3004L37.6526 21.1297L37.6601 21.0611L37.662 21.0424C37.666 21.0054 37.6698 20.9685 37.6732 20.9315V20.9285C37.676 20.8992 37.679 20.8697 37.6815 20.8402C37.6966 20.6728 37.7093 20.5046 37.7195 20.3357C37.7214 20.3081 37.7229 20.2803 37.7246 20.2525V20.2512L37.7302 20.1469L37.7314 20.1236C37.7348 20.053 37.7378 19.9825 37.7401 19.912V19.9095L37.7412 19.8819C37.7423 19.8587 37.7431 19.8353 37.7431 19.812L37.7435 19.8026C37.7444 19.7808 37.7452 19.7582 37.7452 19.7359L37.7459 19.7168C37.7465 19.6945 37.7471 19.6724 37.7471 19.6501L37.7476 19.6312C37.7482 19.603 37.7488 19.5745 37.7488 19.5463V19.4424ZM17.6625 35.5218C18.9373 33.6525 18.8468 32.2494 17.098 30.5015C15.3487 28.7533 14.3307 26.1969 14.3307 26.1969C14.3307 26.1969 13.9508 24.7121 13.0842 24.8484C12.2176 24.9848 11.582 27.2036 13.3964 28.5619C15.2107 29.9201 13.0354 30.8411 12.337 29.5665C11.6387 28.2917 9.732 25.0152 8.74353 24.3884C7.75506 23.7616 7.0599 24.1129 7.29289 25.4047C7.40865 26.0459 8.48507 27.1404 9.49075 28.1628C10.5111 29.2001 11.4585 30.1635 11.2559 30.5044C10.8539 31.1813 9.43786 29.709 9.43786 29.709C9.43786 29.709 5.00394 25.674 4.03883 26.7256C3.14891 27.6947 4.52118 28.5186 6.63577 29.7885C6.81546 29.8964 7.00066 30.0076 7.19033 30.1223C9.60968 31.587 9.79784 31.9733 9.4544 32.5275C9.32761 32.7322 8.51776 32.246 7.52164 31.6482C5.82356 30.6285 3.58455 29.2842 3.2683 30.4874C2.99474 31.5288 4.64203 32.1668 6.13599 32.7456C7.38061 33.2277 8.51905 33.6686 8.35148 34.2672C8.17795 34.8878 7.23727 34.3702 6.20908 33.8044C5.05473 33.1691 3.78993 32.4733 3.37598 33.2585C2.59374 34.7431 8.77286 36.4909 8.82383 36.5039C10.8203 37.0217 15.8905 38.1189 17.6625 35.5218ZM25.8746 35.5218C24.5999 33.6525 24.6903 32.2494 26.4394 30.5015C28.1884 28.7533 29.2064 26.1969 29.2064 26.1969C29.2064 26.1969 29.5864 24.7121 30.453 24.8484C31.3195 24.9848 31.9552 27.2036 30.141 28.5619C28.3265 29.9201 30.5018 30.8411 31.2002 29.5665C31.8987 28.2917 33.8041 25.0152 34.7926 24.3884C35.781 23.7616 36.4766 24.1129 36.2434 25.4047C36.1279 26.0459 35.0513 27.1404 34.0456 28.163C33.0252 29.2003 32.0778 30.1635 32.2802 30.5044C32.6822 31.1813 34.0993 29.7082 34.0993 29.7082C34.0993 29.7082 38.533 25.6734 39.4985 26.7249C40.3882 27.6939 39.016 28.5179 36.9012 29.7878C36.7162 29.8989 36.5314 30.0102 36.3468 30.1217C33.9275 31.5864 33.7393 31.9727 34.0825 32.5266C34.2095 32.7316 35.0194 32.2452 36.0153 31.6473C37.7136 30.6278 39.9526 29.2834 40.2689 30.4868C40.5426 31.5282 38.8951 32.1662 37.4012 32.745C36.1565 33.2271 35.0181 33.668 35.1855 34.2665C35.3588 34.8869 36.2993 34.3693 37.3272 33.8035C38.4816 33.1683 39.7466 32.472 40.1603 33.2579C40.9428 34.7434 34.7626 36.4894 34.7127 36.5022C32.7162 37.0217 27.646 38.1189 25.8746 35.5218Z" fill="#FFD21E"/>
<path fill-rule="evenodd" clip-rule="evenodd" d="M26.8813 14.957C27.1324 15.0458 27.3191 15.316 27.4966 15.5732C27.7366 15.9207 27.9601 16.2441 28.3029 16.0619C28.7072 15.8467 29.0388 15.5167 29.2554 15.1131C29.4723 14.7096 29.5647 14.251 29.5209 13.795C29.4882 13.4541 29.3803 13.1247 29.2049 12.8305C29.0294 12.5363 28.7909 12.2847 28.5067 12.0938C28.2224 11.9029 27.8991 11.7775 27.5605 11.7265C27.2218 11.6756 26.876 11.7004 26.5481 11.7992C26.2201 11.8979 25.9183 12.0681 25.6641 12.2976C25.4099 12.527 25.2096 12.8099 25.0779 13.126C24.9462 13.4421 24.8861 13.7835 24.902 14.1255C24.9182 14.4677 25.0097 14.8018 25.1705 15.1042C25.3294 15.4031 25.6819 15.262 26.054 15.1131C26.3457 14.9965 26.6496 14.8751 26.8813 14.957ZM15.9697 14.957C15.7186 15.0458 15.5319 15.3162 15.3544 15.5732C15.1144 15.9209 14.8907 16.2441 14.5481 16.0619C14.0396 15.7926 13.6495 15.3434 13.4541 14.8022C13.2586 14.2609 13.2717 13.6662 13.4908 13.1341C13.7099 12.6019 14.1193 12.1705 14.6392 11.9238C15.1592 11.677 15.7524 11.6328 16.3031 11.7996C16.7417 11.9317 17.1312 12.1908 17.4226 12.5442C17.714 12.8976 17.8939 13.3294 17.94 13.7851C17.9859 14.2407 17.8956 14.6998 17.6807 15.1042C17.5216 15.4031 17.1691 15.262 16.7969 15.1134C16.5051 14.9965 16.2016 14.8751 15.9697 14.957ZM25.1932 24.8866C26.9227 23.5241 27.558 21.2995 27.558 19.9291C27.558 18.8459 26.8293 19.1868 25.6626 19.7645L25.5968 19.797C24.5259 20.3274 23.1003 21.0336 21.5354 21.0336C19.9703 21.0336 18.5447 20.3274 17.474 19.7968C16.2696 19.2002 15.5141 18.826 15.5141 19.9293C15.5141 21.343 16.1899 23.6643 18.045 25.0127C18.2898 24.516 18.6346 24.075 19.0576 23.7174C19.4805 23.3597 19.9728 23.0931 20.5034 22.9343C20.6886 22.879 20.8793 23.1978 21.0745 23.5243C21.2629 23.8391 21.4555 24.161 21.6514 24.161C21.8602 24.161 22.0651 23.8437 22.2654 23.5341C22.4746 23.2102 22.6787 22.8948 22.876 22.9578C23.869 23.2766 24.6996 23.968 25.1932 24.8866Z" fill="#32343D"/>
<path d="M25.1986 24.8863C24.2979 25.5961 23.1006 26.0721 21.5414 26.0721C20.0766 26.0721 18.9309 25.652 18.0508 25.0125C18.2957 24.5157 18.6404 24.0746 19.0635 23.7171C19.4863 23.3594 19.9787 23.0929 20.5092 22.934C20.8728 22.8255 21.2583 24.1608 21.6572 24.1608C22.0841 24.1608 22.4955 22.8342 22.8818 22.9576C23.8746 23.2766 24.705 23.9679 25.1986 24.8863Z" fill="#FF323D"/>
<path fill-rule="evenodd" clip-rule="evenodd" d="M11.838 16.8841C11.6322 17.0217 11.3956 17.1064 11.1492 17.1306C10.9028 17.1551 10.6542 17.1181 10.4256 17.0232C10.2428 16.9478 10.0766 16.8369 9.9368 16.6969C9.79694 16.5572 9.68609 16.3911 9.61061 16.2082C9.51588 15.9795 9.47903 15.731 9.50339 15.4846C9.52773 15.2382 9.6125 15.0016 9.75015 14.7958C9.91556 14.5482 10.1507 14.3552 10.4258 14.2412C10.7009 14.1272 11.0037 14.0974 11.2957 14.1556C11.5878 14.2137 11.8561 14.3572 12.0666 14.5677C12.2771 14.7784 12.4204 15.0469 12.4783 15.3389C12.5364 15.6309 12.5065 15.9336 12.3926 16.2086C12.2786 16.4837 12.0855 16.7186 11.838 16.8841ZM33.3773 16.8841C33.1715 17.0217 32.9349 17.1064 32.6885 17.1306C32.4419 17.1551 32.1934 17.1181 31.9647 17.0232C31.7818 16.9476 31.6157 16.8369 31.4759 16.6969C31.3362 16.5572 31.2253 16.3911 31.1497 16.2082C31.0552 15.9795 31.0185 15.731 31.0427 15.4846C31.0671 15.2382 31.1518 15.0016 31.2892 14.7958C31.4129 14.6106 31.5762 14.4553 31.7671 14.3408C31.9581 14.2264 32.172 14.1557 32.3935 14.1339C32.6152 14.1121 32.8389 14.1398 33.0483 14.2149C33.2579 14.29 33.4482 14.4106 33.6056 14.5681C33.8163 14.7786 33.9597 15.0469 34.0176 15.3389C34.0758 15.6309 34.0459 15.9336 33.9318 16.2086C33.8178 16.4837 33.6249 16.7186 33.3773 16.8841Z" fill="#FFAD03"/>
</svg>
