<svg width="46" height="41" viewBox="0 0 46 41" fill="none" xmlns="http://www.w3.org/2000/svg">
<path fill-rule="evenodd" clip-rule="evenodd" d="M6.21556 20.1889C6.22804 20.2311 6.26638 20.2602 6.31041 20.2609C9.64533 20.315 13.2643 20.3156 16.6545 20.3156C16.7101 20.3156 16.7552 20.3605 16.7553 20.4162C16.7732 27.1958 16.7372 34.3678 16.7546 40.6995C16.7548 40.776 16.6731 40.8244 16.6059 40.7879C10.8324 37.6531 6.00852 33.0155 3.21279 27.0428C3.18155 26.9761 3.23032 26.8995 3.30402 26.8995C5.11452 26.8989 6.94081 26.8878 8.73314 26.8992C8.76688 26.8994 8.79828 26.9165 8.81688 26.9447C9.58353 28.1044 10.3788 29.1381 11.2445 30.1638C11.2875 30.2148 11.3999 30.3346 11.4967 30.4299C11.5539 30.4863 11.6377 30.4483 11.6393 30.368C11.6733 28.6739 11.6906 26.9482 11.6913 25.2383C11.6913 25.1825 11.6462 25.1373 11.5904 25.1373C8.60192 25.1371 5.51043 25.1296 2.52269 25.1295C2.48036 25.1295 2.44254 25.1031 2.42799 25.0633C0.634697 20.165 -0.165223 15.1111 0.0282643 9.90149C0.0294347 9.86998 0.0453668 9.84073 0.0711987 9.82264C5.00746 6.36616 10.6256 4.5319 16.648 4.16266C16.706 4.1591 16.7551 4.20525 16.7551 4.26336C16.7551 5.90649 16.7551 7.516 16.7551 9.12487C16.7551 9.17831 16.7135 9.22248 16.6602 9.22586C12.6603 9.47959 8.62999 10.5969 5.20244 12.6175C5.17224 12.6353 5.15353 12.6675 5.15302 12.7026C5.11721 15.1977 5.50808 17.795 6.21556 20.1889Z" fill="white"/>
<path fill-rule="evenodd" clip-rule="evenodd" d="M18.9155 4.2786C18.9158 4.21955 18.9666 4.17334 19.0254 4.17864C24.9376 4.7115 30.3526 6.62425 35.2704 9.91692C35.2966 9.93445 35.3132 9.96328 35.315 9.99473C35.4816 12.8271 35.3039 15.653 34.7732 18.4473C34.7642 18.4946 34.7229 18.5289 34.6747 18.5293C32.9784 18.5412 31.4095 18.5292 29.8135 18.5287C29.7577 18.5287 29.7125 18.4837 29.7125 18.428C29.7141 16.6946 29.7555 14.5478 29.7139 12.7765C29.713 12.7414 29.6938 12.7094 29.6634 12.6919C27.7461 11.585 25.9233 10.774 23.8101 10.1867C23.7454 10.1687 23.6816 10.2181 23.6825 10.2852C23.7717 17.0628 23.6641 23.751 23.7533 30.5286C23.7542 30.5969 23.821 30.6434 23.8824 30.6132C23.9789 30.5657 24.0827 30.5003 24.1329 30.4398C25.3533 28.9696 26.347 27.3549 27.114 25.5955C27.1408 25.5341 27.19 25.3927 27.2241 25.276C27.242 25.2146 27.1952 25.1562 27.1313 25.1562C26.6538 25.1562 26.2109 25.1562 25.7178 25.1562C25.6621 25.1562 25.6168 25.1109 25.6168 25.0551C25.6168 23.453 25.6168 22.0191 25.6168 20.417C25.6168 20.3612 25.662 20.3159 25.7178 20.3159C28.5472 20.3159 31.3942 20.3159 34.2589 20.3159C34.3237 20.3159 34.3716 20.3765 34.3571 20.4396C32.2833 29.4617 27.0245 36.2812 19.0255 40.7859C18.9589 40.8234 18.8762 40.7762 18.875 40.6998C18.6935 28.5888 18.8535 16.4515 18.9155 4.2786Z" fill="white"/>
<path d="M39.4436 1.2396C37.7307 6.04653 37.016 6.52575 31.9186 6.28544C36.7255 7.99846 37.2048 8.7131 36.9644 13.8105C38.6774 9.00351 39.3921 8.52433 44.4895 8.76464C39.6825 7.05164 39.2034 6.33698 39.4436 1.2396Z" fill="white"/>
</svg>
