<svg width="1512" height="468" viewBox="0 0 1512 468" fill="none" xmlns="http://www.w3.org/2000/svg">
<g clip-path="url(#clip0_1648_2858)">
<rect width="1517" height="468" transform="translate(-4)" fill="#4F0694"/>
<g filter="url(#filter0_f_1648_2858)">
<ellipse cx="1317.5" cy="230.5" rx="231.5" ry="66.5" transform="rotate(-90 1317.5 230.5)" fill="url(#paint0_linear_1648_2858)"/>
</g>
<g filter="url(#filter1_f_1648_2858)">
<path d="M1474 380C1474 565.568 1323.57 716 1138 716C952.432 716 802 565.568 802 380C802 194.432 952.432 44 1138 44C1323.57 44 1474 194.432 1474 380Z" fill="#3E0870"/>
</g>
<g filter="url(#filter2_f_1648_2858)">
<path d="M1169.5 234.5C1169.5 381.408 878.568 266 693 266C507.432 266 357 146.908 357 3.05176e-05C357 -146.908 507.432 -266 693 -266C878.568 -266 1169.5 87.5923 1169.5 234.5Z" fill="#3E0870"/>
</g>
<g filter="url(#filter3_f_1648_2858)">
<path d="M212 486.368C212 554.573 79.872 500.993 -4.40431 500.993C-88.6806 500.993 -157 445.701 -157 377.496C-157 309.291 -88.6806 254 -4.40431 254C79.872 254 212 418.163 212 486.368Z" fill="#3E0870"/>
</g>
<g filter="url(#filter4_f_1648_2858)">
<ellipse cx="644.5" cy="374.5" rx="701.5" ry="120.5" fill="url(#paint1_linear_1648_2858)"/>
</g>
<g filter="url(#filter5_f_1648_2858)">
<ellipse cx="62.5" cy="231.5" rx="231.5" ry="66.5" transform="rotate(-90 62.5 231.5)" fill="url(#paint2_linear_1648_2858)"/>
</g>
<g filter="url(#filter6_f_1648_2858)">
<ellipse cx="1293.07" cy="434.207" rx="100.9" ry="119.649" transform="rotate(60 1293.07 434.207)" fill="url(#paint3_linear_1648_2858)"/>
</g>
<g filter="url(#filter7_f_1648_2858)">
<ellipse cx="9.06876" cy="364.207" rx="100.9" ry="119.649" transform="rotate(60 9.06876 364.207)" fill="url(#paint4_linear_1648_2858)"/>
</g>
<g filter="url(#filter8_f_1648_2858)">
<ellipse cx="178.145" cy="477.481" rx="109.48" ry="130.861" transform="rotate(101.559 178.145 477.481)" fill="url(#paint5_linear_1648_2858)"/>
</g>
</g>
<defs>
<filter id="filter0_f_1648_2858" x="1151" y="-101" width="333" height="663" filterUnits="userSpaceOnUse" color-interpolation-filters="sRGB">
<feFlood flood-opacity="0" result="BackgroundImageFix"/>
<feBlend mode="normal" in="SourceGraphic" in2="BackgroundImageFix" result="shape"/>
<feGaussianBlur stdDeviation="50" result="effect1_foregroundBlur_1648_2858"/>
</filter>
<filter id="filter1_f_1648_2858" x="702" y="-56" width="872" height="872" filterUnits="userSpaceOnUse" color-interpolation-filters="sRGB">
<feFlood flood-opacity="0" result="BackgroundImageFix"/>
<feBlend mode="normal" in="SourceGraphic" in2="BackgroundImageFix" result="shape"/>
<feGaussianBlur stdDeviation="50" result="effect1_foregroundBlur_1648_2858"/>
</filter>
<filter id="filter2_f_1648_2858" x="257" y="-366" width="1012.5" height="775.094" filterUnits="userSpaceOnUse" color-interpolation-filters="sRGB">
<feFlood flood-opacity="0" result="BackgroundImageFix"/>
<feBlend mode="normal" in="SourceGraphic" in2="BackgroundImageFix" result="shape"/>
<feGaussianBlur stdDeviation="50" result="effect1_foregroundBlur_1648_2858"/>
</filter>
<filter id="filter3_f_1648_2858" x="-257" y="154" width="569" height="467" filterUnits="userSpaceOnUse" color-interpolation-filters="sRGB">
<feFlood flood-opacity="0" result="BackgroundImageFix"/>
<feBlend mode="normal" in="SourceGraphic" in2="BackgroundImageFix" result="shape"/>
<feGaussianBlur stdDeviation="50" result="effect1_foregroundBlur_1648_2858"/>
</filter>
<filter id="filter4_f_1648_2858" x="-157" y="154" width="1603" height="441" filterUnits="userSpaceOnUse" color-interpolation-filters="sRGB">
<feFlood flood-opacity="0" result="BackgroundImageFix"/>
<feBlend mode="normal" in="SourceGraphic" in2="BackgroundImageFix" result="shape"/>
<feGaussianBlur stdDeviation="50" result="effect1_foregroundBlur_1648_2858"/>
</filter>
<filter id="filter5_f_1648_2858" x="-104" y="-100" width="333" height="663" filterUnits="userSpaceOnUse" color-interpolation-filters="sRGB">
<feFlood flood-opacity="0" result="BackgroundImageFix"/>
<feBlend mode="normal" in="SourceGraphic" in2="BackgroundImageFix" result="shape"/>
<feGaussianBlur stdDeviation="50" result="effect1_foregroundBlur_1648_2858"/>
</filter>
<filter id="filter6_f_1648_2858" x="1077.79" y="228.298" width="430.551" height="411.818" filterUnits="userSpaceOnUse" color-interpolation-filters="sRGB">
<feFlood flood-opacity="0" result="BackgroundImageFix"/>
<feBlend mode="normal" in="SourceGraphic" in2="BackgroundImageFix" result="shape"/>
<feGaussianBlur stdDeviation="50" result="effect1_foregroundBlur_1648_2858"/>
</filter>
<filter id="filter7_f_1648_2858" x="-206.207" y="158.298" width="430.551" height="411.818" filterUnits="userSpaceOnUse" color-interpolation-filters="sRGB">
<feFlood flood-opacity="0" result="BackgroundImageFix"/>
<feBlend mode="normal" in="SourceGraphic" in2="BackgroundImageFix" result="shape"/>
<feGaussianBlur stdDeviation="50" result="effect1_foregroundBlur_1648_2858"/>
</filter>
<filter id="filter8_f_1648_2858" x="-51.9453" y="267.037" width="460.18" height="420.888" filterUnits="userSpaceOnUse" color-interpolation-filters="sRGB">
<feFlood flood-opacity="0" result="BackgroundImageFix"/>
<feBlend mode="normal" in="SourceGraphic" in2="BackgroundImageFix" result="shape"/>
<feGaussianBlur stdDeviation="50" result="effect1_foregroundBlur_1648_2858"/>
</filter>
<linearGradient id="paint0_linear_1648_2858" x1="1317.5" y1="164" x2="1317.5" y2="297" gradientUnits="userSpaceOnUse">
<stop stop-color="#7932BC"/>
<stop offset="1" stop-color="#5D1D9A" stop-opacity="0"/>
</linearGradient>
<linearGradient id="paint1_linear_1648_2858" x1="644.5" y1="254" x2="644.5" y2="495" gradientUnits="userSpaceOnUse">
<stop stop-color="#7932BC"/>
<stop offset="1" stop-color="#5D1D9A" stop-opacity="0"/>
</linearGradient>
<linearGradient id="paint2_linear_1648_2858" x1="62.5" y1="165" x2="62.5" y2="298" gradientUnits="userSpaceOnUse">
<stop stop-color="#7932BC"/>
<stop offset="1" stop-color="#5D1D9A" stop-opacity="0"/>
</linearGradient>
<linearGradient id="paint3_linear_1648_2858" x1="1301.02" y1="406.651" x2="1202.26" y2="322.768" gradientUnits="userSpaceOnUse">
<stop stop-color="#390966"/>
<stop offset="1" stop-color="#390966" stop-opacity="0"/>
</linearGradient>
<linearGradient id="paint4_linear_1648_2858" x1="17.0184" y1="336.651" x2="-81.7363" y2="252.768" gradientUnits="userSpaceOnUse">
<stop stop-color="#390966"/>
<stop offset="1" stop-color="#390966" stop-opacity="0"/>
</linearGradient>
<linearGradient id="paint5_linear_1648_2858" x1="186.77" y1="447.344" x2="78.904" y2="356.447" gradientUnits="userSpaceOnUse">
<stop stop-color="#390966"/>
<stop offset="1" stop-color="#390966" stop-opacity="0"/>
</linearGradient>
<clipPath id="clip0_1648_2858">
<rect width="1517" height="468" fill="white" transform="translate(-4)"/>
</clipPath>
</defs>
</svg>
